<svg version="1.1" id="Layer_1" xmlns="http://www.w3.org/2000/svg" xmlns:xlink="http://www.w3.org/1999/xlink" x="0px" y="0px"
	 width="100%" viewBox="0 0 816 696" enable-background="new 0 0 816 696" xml:space="preserve">
<path fill="#201B18" opacity="1.000000" stroke="none" 
	d="
M282.340485,461.630859 
	C315.647614,505.952240 359.246124,533.001892 413.881927,540.321533 
	C471.396271,548.026855 522.789124,532.434448 566.874390,494.636108 
	C604.127075,462.696014 625.866699,421.932220 632.793213,373.326263 
	C633.309753,369.701538 633.557861,366.036072 633.856018,362.383453 
	C634.153076,358.744995 634.356079,355.098846 634.616821,351.209991 
	C658.355286,351.209991 681.753662,351.209991 706.086548,351.209991 
	C702.178772,443.216217 664.197754,517.671082 587.582214,568.015686 
	C496.342896,627.969543 400.159363,630.445740 304.987000,576.160034 
	C219.659866,527.489929 174.453827,436.942017 174.340210,351.176941 
	C197.764175,351.176941 221.189453,351.176941 245.302841,351.176941 
	C246.303192,391.583801 258.679199,428.349487 282.340485,461.630859 
z"/>
<path fill="#201B18" opacity="1.000000" stroke="none" 
	d="
M90.909744,242.907761 
	C129.932465,150.610153 223.431519,90.044106 325.791901,96.781448 
	C325.791901,117.660431 325.791901,138.566055 325.791901,160.081329 
	C321.806549,160.081329 317.705719,160.057465 313.605225,160.085327 
	C291.950623,160.232468 270.835358,163.637650 250.584000,171.378922 
	C216.040680,184.583481 188.081421,206.299393 167.058258,236.843338 
	C146.739212,266.364288 136.661850,299.092010 136.502609,334.840759 
	C136.253311,390.812500 136.171295,446.785034 136.074921,502.757355 
	C136.016388,536.747498 136.064117,570.737793 136.064117,604.728027 
	C136.064117,606.547729 136.064117,608.367432 136.064117,610.502441 
	C115.075668,610.502441 94.341553,610.502441 72.923546,610.502441 
	C72.923546,608.625366 72.923546,606.701965 72.923546,604.778625 
	C72.923546,545.462341 73.016212,486.145813 72.885674,426.829834 
	C72.817215,395.725891 72.081932,364.622253 72.151634,333.519592 
	C72.221764,302.229523 78.279053,272.053040 90.909744,242.907761 
z"/>
<path fill="#0095D9" opacity="1.000000" stroke="none" 
	d="
M570.447998,442.430237 
	C543.847839,478.363739 508.835999,500.897217 465.099792,507.426910 
	C410.948944,515.511536 363.784454,499.693268 324.879181,460.676849 
	C303.044464,438.779816 289.336792,412.424530 282.461792,382.395691 
	C282.390106,382.082520 282.452911,381.738556 282.452911,381.072083 
	C387.152039,381.072083 491.859070,381.072083 597.317688,381.072083 
	C592.941772,403.583191 583.895264,423.751617 570.447998,442.430237 
z"/>
<path fill="#0095D9" opacity="1.000000" stroke="none" 
	d="
M449.000000,365.999207 
	C392.522858,365.999207 336.545715,365.999207 279.892853,365.999207 
	C279.508118,361.104065 279.138550,356.401672 278.737549,351.299683 
	C386.267151,351.299683 493.309784,351.299683 600.997375,351.299683 
	C600.700623,356.012756 600.403992,360.723663 600.071838,365.999207 
	C549.712463,365.999207 499.606232,365.999207 449.000000,365.999207 
z"/>
<path fill="#0196D9" opacity="1.000000" stroke="none" 
	d="
M305.265930,215.734146 
	C310.895660,227.029587 316.999847,237.745895 321.526215,249.091690 
	C324.086212,255.508652 324.736053,262.930054 325.042358,269.951569 
	C325.621613,283.228485 315.530884,292.843079 303.518311,296.594879 
	C289.662354,300.922394 273.948914,296.137115 265.336029,285.090637 
	C259.262177,277.300598 258.222198,268.237579 260.945709,259.557098 
	C264.444763,248.404800 269.070648,237.452927 274.534576,227.114166 
	C279.790863,217.168320 286.729980,208.111267 292.951508,198.678085 
	C293.199799,198.301666 293.672882,198.073547 294.360779,197.518448 
	C297.990021,203.578949 301.535004,209.498718 305.265930,215.734146 
z"/>
</svg>